<svg xmlns="http://www.w3.org/2000/svg" viewBox="0 0 21.138 21.138" height="79.892" width="79.892"><defs><clipPath id="a" clipPathUnits="userSpaceOnUse"><path d="M450.12 353.2h52.25v-52.25h-52.25z"/></clipPath></defs><g clip-path="url(#a)" transform="matrix(.35278 0 0 -.35278 -157.44 125.954)"><path d="M498.92 326.57h-4.64v1.01h4.64z" fill="#fafbfc"/><path d="M486.45 316.52l1.14-4.47-4.52 1.05 1.56 1.58 1.2-1.45.75.63-1.26 1.52z" fill="#00607f"/><path d="M485.32 315.38l1.26-1.52-.75-.63-1.2 1.45z" fill="#00607f"/><path d="M485.32 315.38l-.69-.7-7.41 8.93c.31.13.58.31.82.54z" fill="#fafbfc"/><path d="M476.22 341.01l2.43-3.95h-1.89v1.47h-1.09v-1.47h-1.83z" fill="#00607f"/><path d="M476.76 328.54a2.595 2.595 0 002.07-2.54c0-.73-.3-1.39-.79-1.85l-.67.8c.26.27.42.64.42 1.05 0 .68-.43 1.25-1.03 1.45z" fill="#fafbfc"/><path d="M477.37 324.95l.67-.8c-.24-.23-.51-.41-.82-.54l-.66.8.16.13c.25.08.48.22.65.41" fill="#fafbfc"/><path d="M476.72 324.54l.59.49.06-.08c-.17-.19-.4-.33-.65-.41m-1.05 2.14v.76c.18.07.37.11.57.11.18 0 .36-.03.52-.1v-.77zm1.09 10.38v-8.52c-.17.03-.34.05-.52.05-.2 0-.39-.02-.57-.06v8.53z" fill="#fafbfc"/><path d="M476.76 337.06h-1.09v1.47h1.09z" fill="#00607f"/><path d="M476.75 304.77h-1.01v4.64h1.01z" fill="#fafbfc"/><path d="M487.59 312.05l-1.14 4.47-1.13-1.14-7.28 8.77c.49.46.79 1.12.79 1.85 0 1.25-.89 2.3-2.07 2.54v8.52h1.89l-2.43 3.95-2.38-3.95h1.83v-8.53a2.596 2.596 0 01-2.01-2.53c0-1.43 1.15-2.58 2.58-2.58.35 0 .68.07.98.19l7.41-8.93-1.56-1.58zm-11.85-7.28h1.01v4.64h-1.01zm-.06 40.5h1.01v4.64h-1.01zm-22.71-18.2c0 12.83 10.44 23.27 23.27 23.27 12.84 0 23.28-10.44 23.28-23.27s-10.44-23.27-23.28-23.27c-12.83 0-23.27 10.44-23.27 23.27m1.09.15h4.64v1h-4.64zm44.86.36h-4.64v-1.01h4.64z" fill="#fb0"/><path d="M476.69 345.27h-1.011v4.64h1.011zm-1.02-17.83v1.09c.18.04.37.06.57.06.18 0 .35-.02.52-.05v-1.09c-.16.07-.34.1-.52.1-.2 0-.39-.04-.57-.11" fill="#fafbfc"/><path d="M475.67 327.44v-.76h1.09v.77c.6-.2 1.03-.77 1.03-1.45 0-.41-.16-.78-.42-1.05l-.06.08-.59-.49a1.51 1.51 0 00-.48-.08c-.85 0-1.54.69-1.54 1.54 0 .66.4 1.21.97 1.44" fill="#00607f"/><path d="M475.67 328.53v-1.09c-.57-.23-.97-.78-.97-1.44 0-.85.69-1.54 1.54-1.54.17 0 .33.03.48.08l-.16-.13.66-.8c-.3-.12-.63-.19-.98-.19-1.43 0-2.58 1.15-2.58 2.58 0 1.23.86 2.27 2.01 2.53m-16.97-1.31h-4.641v1h4.641z" fill="#fafbfc"/><path d="M476.24 302.37c-13.64 0-24.69 11.06-24.69 24.7 0 13.64 11.05 24.7 24.69 24.7s24.7-11.06 24.7-24.7c0-13.64-11.06-24.7-24.7-24.7m0 47.97c-12.83 0-23.27-10.44-23.27-23.27s10.44-23.27 23.27-23.27c12.84 0 23.28 10.44 23.28 23.27s-10.44 23.27-23.28 23.27" fill="#6c9814"/><path d="M451.55 327.07c0-13.64 11.05-24.7 24.69-24.7s24.7 11.06 24.7 24.7c0 13.64-11.06 24.7-24.7 24.7-13.64 0-24.69-11.06-24.69-24.7m6.22-18.47c-4.93 4.93-7.65 11.49-7.65 18.47 0 6.98 2.72 13.54 7.65 18.48 4.94 4.93 11.5 7.65 18.47 7.65 6.98 0 13.54-2.72 18.48-7.65 4.93-4.94 7.65-11.5 7.65-18.48s-2.72-13.54-7.65-18.47c-4.94-4.94-11.5-7.65-18.48-7.65-6.97 0-13.53 2.71-18.47 7.65" fill="#6c9814"/></g><path d="M10.567 19.785a9.154 9.154 0 01-6.516-2.698 9.157 9.157 0 01-2.698-6.516A9.17 9.17 0 014.05 4.05a9.168 9.168 0 016.516-2.698c2.462 0 4.777.96 6.52 2.699a9.169 9.169 0 012.698 6.519c0 2.462-.96 4.776-2.699 6.516a9.154 9.154 0 01-6.519 2.698z" fill="none" stroke="#141414" stroke-width=".706" stroke-linecap="round" stroke-linejoin="round" stroke-miterlimit="10"/><path d="M10.567 2.362c-4.526 0-8.21 3.683-8.21 8.209s3.684 8.21 8.21 8.21c4.53 0 8.213-3.684 8.213-8.21 0-4.526-3.683-8.21-8.213-8.21zm.183 4.685v3.005m-.384.004v-3.01" fill="none" stroke="#141414" stroke-width=".706" stroke-linecap="round" stroke-linejoin="round" stroke-miterlimit="10"/><path d="M10.75 7.047h.668l-.858-1.394-.84 1.394h.646zm2.777 7.895l-2.614-3.15m.289-.191l2.568 3.094m-3.02-4.643c.417.085.73.455.73.896a.89.89 0 01-.278.653.933.933 0 01-.29.19.908.908 0 01-1.256-.843.916.916 0 01.911-.913c.064 0 .124.007.184.017z" fill="none" stroke="#141414" stroke-width=".706" stroke-linecap="round" stroke-linejoin="round" stroke-miterlimit="10"/><path d="M10.75 10.437c.213.07.364.271.364.511a.532.532 0 01-.148.37.52.52 0 01-.23.145.544.544 0 01-.713-.515.544.544 0 01.544-.546.46.46 0 01.184.035zm2.777 4.505l-.55.557 1.594.37-.402-1.576-.399.402zM10.726 4.15h-.357V2.513h.357zm.021 14.288h-.356V16.8h.356zm7.821-7.691h-1.637v-.356h1.637zM4.38 10.518H2.742v-.353H4.38z" fill="none" stroke="#141414" stroke-width=".706" stroke-linecap="round" stroke-linejoin="round" stroke-miterlimit="10"/></svg>