<svg version="1.0" xmlns="http://www.w3.org/2000/svg" width="110" height="110"><circle cx="55" cy="55" r="55" fill="#87e0c8"/><path d="M55 27c15.44 0 28 12.561 28 28S70.439 83 55 83 27 70.439 27 55s12.56-28 28-28m0-4c-17.673 0-32 14.327-32 32s14.327 32 32 32 32-14.327 32-32-14.327-32-32-32z" fill="#d7fcf9"/><path d="M55 83c-15.44 0-28-12.561-28-28s12.561-28 28-28 28 12.561 28 28-12.561 28-28 28z" fill="#00b8a5"/><path d="M55 27c-15.44 0-28 12.561-28 28 0 7.946 3.333 15.124 8.667 20.225l39.558-39.558C70.123 30.333 62.946 27 55 27z" fill="#00d6c1"/><path d="M27 55c0-15.439 12.561-28 28-28 7.925 0 15.086 3.315 20.185 8.625l2.838-2.838C72.203 26.757 64.042 23 55 23c-17.673 0-32 14.327-32 32 0 9.043 3.757 17.203 9.787 23.023l2.838-2.837C30.315 70.086 27 62.925 27 55z" fill="#fff"/><path d="M69.377 66.761c-2.592 3.36-5.809 5.617-10.753 5.617-7.105 0-12.097-4.561-13.921-11.377h-2.592a2.049 2.049 0 01-2.064-2.065c0-1.104.912-2.064 2.064-2.064h1.872c-.047-.576-.047-1.2-.047-1.824 0-.72 0-1.488.096-2.208h-1.92c-1.152 0-2.064-.912-2.064-2.017 0-1.152.912-2.064 2.064-2.064H44.8c1.872-6.48 6.816-11.137 13.633-11.137 5.088 0 8.16 2.016 10.656 4.896.385.384.769 1.104.769 1.968 0 1.536-1.296 2.784-2.833 2.784-1.008 0-1.68-.48-2.064-.96-1.824-2.208-3.696-3.408-6.673-3.408-3.456 0-6.048 2.256-7.393 5.856h8.545c1.104 0 2.017.912 2.017 2.064a2.03 2.03 0 01-2.017 2.017h-9.457c-.096.672-.096 1.392-.096 2.112 0 .672 0 1.296.048 1.92h9.505c1.104 0 2.017.96 2.017 2.064 0 1.152-.912 2.065-2.017 2.065H50.8c1.344 3.84 4.08 6.096 7.873 6.096 2.88 0 4.752-1.392 6.576-3.648.48-.576 1.152-.96 2.064-.96 1.44 0 2.64 1.152 2.64 2.592 0 .721-.288 1.345-.576 1.681z" fill="#fff"/></svg>