<svg xmlns="http://www.w3.org/2000/svg" width="64pt" height="64pt" viewBox="0 0 22.578 22.578"><g stroke-width=".769" color="#000" font-weight="400" font-family="sans-serif"><path d="M7.433.974c-.905 0-1.642.738-1.642 1.642v17.345c0 .905.737 1.645 1.642 1.645h12.456c.945 0 1.718-.775 1.718-1.72V5.712a.344.344 0 00-.083-.226l-3.82-4.396a.344.344 0 00-.26-.117z" style="line-height:normal;font-variant-ligatures:normal;font-variant-position:normal;font-variant-caps:normal;font-variant-numeric:normal;font-variant-alternates:normal;font-variant-east-asian:normal;font-feature-settings:normal;font-variation-settings:normal;text-indent:0;text-align:start;text-decoration-line:none;text-decoration-style:solid;text-decoration-color:#000;text-transform:none;text-orientation:mixed;white-space:normal;shape-padding:0;shape-margin:0;inline-size:0;isolation:auto;mix-blend-mode:normal;solid-color:#000;solid-opacity:1" overflow="visible" fill="#9ccc65"/><path d="M17.442.974a.344.344 0 00-.305.343v4.47a.344.344 0 00.346.345h3.782a.344.344 0 00.261-.566l-3.782-4.473a.344.344 0 00-.302-.12z" style="line-height:normal;font-variant-ligatures:normal;font-variant-position:normal;font-variant-caps:normal;font-variant-numeric:normal;font-variant-alternates:normal;font-variant-east-asian:normal;font-feature-settings:normal;font-variation-settings:normal;text-indent:0;text-align:start;text-decoration-line:none;text-decoration-style:solid;text-decoration-color:#000;text-transform:none;text-orientation:mixed;white-space:normal;shape-padding:0;shape-margin:0;inline-size:0;isolation:auto;mix-blend-mode:normal;solid-color:#000;solid-opacity:1" overflow="visible" fill="#74a838"/><path d="M7.854 4.068a.344.344 0 00-.345.343.344.344 0 00.345.345h6.877a.344.344 0 00.343-.345.344.344 0 00-.343-.343zm.272 2.749a.344.344 0 00-.345.346.344.344 0 00.345.342h7.98a.344.344 0 00.343-.342.344.344 0 00-.342-.346zm2.82 2.752a.344.344 0 00-.345.345.344.344 0 00.345.343h8.598a.344.344 0 00.345-.343.344.344 0 00-.345-.345zM9.763 12.32a.344.344 0 00-.342.343.344.344 0 00.342.346h7.72a.344.344 0 00.342-.346.344.344 0 00-.342-.342zm-1.685 2.752a.344.344 0 00-.343.343.344.344 0 00.343.345h3.901a.344.344 0 00.345-.345.344.344 0 00-.345-.343zm-.224 2.749a.344.344 0 00-.345.346.344.344 0 00.345.342h5.844a.344.344 0 00.345-.342.344.344 0 00-.345-.346z" style="line-height:normal;font-variant-ligatures:normal;font-variant-position:normal;font-variant-caps:normal;font-variant-numeric:normal;font-variant-alternates:normal;font-variant-east-asian:normal;font-feature-settings:normal;font-variation-settings:normal;text-indent:0;text-align:start;text-decoration-line:none;text-decoration-style:solid;text-decoration-color:#000;text-transform:none;text-orientation:mixed;white-space:normal;shape-padding:0;shape-margin:0;inline-size:0;isolation:auto;mix-blend-mode:normal;solid-color:#000;solid-opacity:1" overflow="visible" fill="#3a4d5c"/><path d="M5.79 17.922a.875.875 0 00.196-.39l.251-1.216c1.051-.873 1.758-1.524 2.369-3.686a8.17 8.17 0 001.844-2.143.954.954 0 00.1-.25c.105-.428.081-.874-.117-1.26a1.64 1.64 0 00-.855-.766 1.946 1.946 0 00-1.995.33c-.158.16-.388.247-.546.348l-1.246.733" style="line-height:normal;font-variant-ligatures:normal;font-variant-position:normal;font-variant-caps:normal;font-variant-numeric:normal;font-variant-alternates:normal;font-variant-east-asian:normal;font-feature-settings:normal;font-variation-settings:normal;text-indent:0;text-align:start;text-decoration-line:none;text-decoration-style:solid;text-decoration-color:#000;text-transform:none;text-orientation:mixed;white-space:normal;shape-padding:0;shape-margin:0;inline-size:0;isolation:auto;mix-blend-mode:normal;solid-color:#000;solid-opacity:1" overflow="visible" fill="#74a838"/><path d="M5.794 7.108l-1.458.7a.344.344 0 00-.16.157L2.2 11.975a.351.351 0 00-.02.051L.99 15.783a.343.343 0 00-.015.102L.97 17.42c0 .193.158.35.35.346l3.785-.074a.343.343 0 00.33-.274l.287-1.384c1.223-1.021 1.772-1.292 2.417-3.729a7.29 7.29 0 001.827-2.104.343.343 0 00.038-.096c.079-.323.054-.627-.07-.871a1.083 1.083 0 00-.567-.503 1.37 1.37 0 00-1.416.231c-.716.604-1.389.876-2.16 1.363z" style="line-height:normal;font-variant-ligatures:normal;font-variant-position:normal;font-variant-caps:normal;font-variant-numeric:normal;font-variant-alternates:normal;font-variant-east-asian:normal;font-feature-settings:normal;font-variation-settings:normal;text-indent:0;text-align:start;text-decoration-line:none;text-decoration-style:solid;text-decoration-color:#000;text-transform:none;text-orientation:mixed;white-space:normal;shape-padding:0;shape-margin:0;inline-size:0;isolation:auto;mix-blend-mode:normal;solid-color:#000;solid-opacity:1" overflow="visible" fill="#ffccbc"/><path d="M5.407 15.511l-4.09.03a.344.344 0 00-.342.344L.97 17.42a.344.344 0 00.35.346l3.785-.074a.344.344 0 00.33-.274l.31-1.493a.344.344 0 00-.338-.414z" style="line-height:normal;font-variant-ligatures:normal;font-variant-position:normal;font-variant-caps:normal;font-variant-numeric:normal;font-variant-alternates:normal;font-variant-east-asian:normal;font-feature-settings:normal;font-variation-settings:normal;text-indent:0;text-align:start;text-decoration-line:none;text-decoration-style:solid;text-decoration-color:#000;text-transform:none;text-orientation:mixed;white-space:normal;shape-padding:0;shape-margin:0;inline-size:0;isolation:auto;mix-blend-mode:normal;solid-color:#000;solid-opacity:1" overflow="visible" fill="#3a4d5c"/><path d="M5.791 9.502c-.642.621-1.359 2.16-1.541 3.362a.344.344 0 00.68.104c.154-1.01.696-2.285 1.212-2.852-.116.068-.231.133-.352.209z" style="line-height:normal;font-variant-ligatures:normal;font-variant-position:normal;font-variant-caps:normal;font-variant-numeric:normal;font-variant-alternates:normal;font-variant-east-asian:normal;font-feature-settings:normal;font-variation-settings:normal;text-indent:0;text-align:start;text-decoration-line:none;text-decoration-style:solid;text-decoration-color:#000;text-transform:none;text-orientation:mixed;white-space:normal;shape-padding:0;shape-margin:0;inline-size:0;isolation:auto;mix-blend-mode:normal;solid-color:#000;solid-opacity:1" overflow="visible" fill="#ffa185"/><path d="M20.92 5.026v14.171c0 .946-.773 1.721-1.719 1.721H6.745c-.274 0-.53-.074-.758-.195a1.64 1.64 0 001.446.883H19.89c.946 0 1.718-.775 1.718-1.72V5.712a.344.344 0 00-.083-.226z" style="line-height:normal;font-variant-ligatures:normal;font-variant-position:normal;font-variant-caps:normal;font-variant-numeric:normal;font-variant-alternates:normal;font-variant-east-asian:normal;font-feature-settings:normal;font-variation-settings:normal;text-indent:0;text-align:start;text-decoration-line:none;text-decoration-style:solid;text-decoration-color:#000;text-transform:none;text-orientation:mixed;white-space:normal;shape-padding:0;shape-margin:0;inline-size:0;isolation:auto;mix-blend-mode:normal;solid-color:#000;solid-opacity:1" overflow="visible" fill="#74a838"/></g></svg>